<svg xmlns="http://www.w3.org/2000/svg" width="318" height="217" viewBox="0 0 318 217">
    <path fill="#000" fill-rule="evenodd" d="M133.21 156.75H45.614L26.863 213H.79L76.082.89h27.246L178.621 213h-26.367l-19.043-56.25zm-7.323-21.68L89.266 26.672 52.937 135.07h72.95zm135.058-82.91c17.188 0 30.957 4.248 41.309 12.744 10.352 8.496 15.527 20.947 15.527 37.354V213h-21.68v-19.922c-10.156 15.43-25.878 23.145-47.167 23.145-15.625 0-27.735-4.102-36.329-12.305-8.593-8.203-12.89-19.727-12.89-34.57 0-18.75 7.617-32.52 22.851-41.309 15.235-8.789 39.16-13.281 71.778-13.476v-10.254c0-9.766-3.076-17.188-9.229-22.266-6.152-5.078-15.185-7.617-27.1-7.617-13.085 0-25.39 2.734-36.913 8.203L214.949 63c14.258-7.227 29.59-10.84 45.996-10.84zm-6.738 142.676c8.008 0 15.283-1.514 21.826-4.541 6.543-3.027 12.647-7.666 18.31-13.916v-43.066c-24.413.195-42.333 3.027-53.759 8.496-11.426 5.468-17.139 14.062-17.139 25.78 0 8.985 2.588 15.772 7.764 20.362 5.176 4.59 12.842 6.885 22.998 6.885z"/>
</svg>
