<svg xmlns="http://www.w3.org/2000/svg" width="403" height="856" viewBox="0 0 403 856">
    <g fill="#1D2129" fill-rule="evenodd">
        <path d="M.168 167.476c0-54.07 16.919-95.337 50.757-123.804C84.763 15.205 134.982.972 201.584.972c66.602 0 116.821 14.233 150.66 42.7C386.08 72.14 403 113.406 403 167.476c0 54.069-16.919 95.337-50.757 123.803-33.838 28.467-84.057 42.7-150.659 42.7-66.602 0-116.821-14.233-150.66-42.7C17.088 262.813.169 221.545.169 167.476zm66.064 0c0 60.156 45.117 90.234 135.352 90.234 90.235 0 135.352-30.078 135.352-90.234 0-60.157-45.117-90.235-135.352-90.235-90.235 0-135.352 30.078-135.352 90.235zm241.163 385.107c0 27.572-8.415 48.967-25.245 64.185-16.83 15.218-40.462 22.827-70.898 22.827H7.15v-73.047h193.36c26.14 0 39.209-14.144 39.209-42.432 0-9.668-1.612-18.62-4.834-26.855-3.223-8.236-8.236-16.83-15.04-25.781H7.15v-73.047h293.262v66.064h-37.06c29.362 22.917 44.043 52.279 44.043 88.086zM130.686 856v-86.425c-42.97 6.088-64.454 30.436-64.454 73.047 0 4.46.204 8.919.612 13.378H1.786a211.882 211.882 0 0 1-1.08-21.434c0-44.402 13.337-78.687 40.014-102.857 26.676-24.17 64.363-36.255 113.061-36.255 49.056 0 86.922 11.369 113.599 34.107 26.676 22.737 40.015 54.695 40.015 95.874 0 10.857-.906 21.046-2.717 30.565h-70.941c6.494-8.578 9.742-19.304 9.742-32.177 0-31.868-21.306-50.13-63.917-54.785V856h-48.876z"/>
    </g>
</svg>
