<svg xmlns="http://www.w3.org/2000/svg" width="1104" height="470" viewBox="0 0 1104 470">
    <path fill="#000" fill-rule="evenodd" d="M42.717 51.188h-27.74L9.04 69H.783L24.626 1.832h8.628L57.097 69h-8.35l-6.03-17.813zm-2.32-6.866L28.801 9.996 17.297 44.322h23.1zm63.198-10.761c8.288 2.164 12.432 7.607 12.432 16.328 0 6-1.81 10.684-5.428 14.055-3.618 3.37-8.643 5.056-15.075 5.056H69.825V1.832h22.359c6.308 0 11.225 1.608 14.75 4.824 3.526 3.216 5.289 7.731 5.289 13.545 0 3.526-.727 6.417-2.18 8.674-1.454 2.258-3.603 3.82-6.448 4.686zM77.525 8.79v22.358h14.659c3.958 0 6.958-.912 8.999-2.736 2.04-1.825 3.061-4.53 3.061-8.118 0-3.773-1.051-6.633-3.154-8.582-2.103-1.948-5.195-2.922-9.277-2.922H77.526zm18.37 53.252c3.958 0 6.958-1.02 8.999-3.062 2.04-2.04 3.061-5.071 3.061-9.091 0-3.959-1.051-6.943-3.154-8.953-2.103-2.01-5.195-3.015-9.277-3.015H77.526v24.121h18.369zm60.692 8.071c-6.247 0-11.596-1.33-16.05-3.989-4.453-2.66-7.854-6.494-10.205-11.504-2.35-5.01-3.525-10.978-3.525-17.905 0-7.237 1.206-13.576 3.618-19.019 2.412-5.442 5.83-9.648 10.252-12.617 4.422-2.969 9.57-4.453 15.446-4.453a34.8 34.8 0 0 1 9.046 1.206c3 .804 5.736 1.917 8.21 3.34l-2.876 6.216c-5.01-2.412-9.865-3.618-14.565-3.618-6.618 0-11.782 2.473-15.493 7.421-3.711 4.948-5.567 11.906-5.567 20.874 0 8.845 1.887 15.524 5.66 20.04 3.772 4.514 9.308 6.772 16.606 6.772 5.504 0 10.143-1.082 13.916-3.247l2.876 6.123c-1.917 1.36-4.407 2.427-7.468 3.2-3.062.774-6.355 1.16-9.88 1.16zm49.56-68.281c10.02 0 17.673 2.845 22.961 8.535 5.289 5.69 7.933 14.04 7.933 25.049 0 11.01-2.675 19.359-8.025 25.049-5.35 5.69-13.097 8.535-23.24 8.535h-18.184V1.832h18.555zm-.093 60.21c7.546 0 13.251-2.242 17.117-6.726 3.865-4.484 5.798-11.117 5.798-19.9 0-8.783-1.948-15.416-5.844-19.9-3.897-4.484-9.68-6.726-17.35-6.726h-10.483v53.252h10.762zm87.133 0V69h-40.449V1.832h39.336V8.79h-31.636v22.358h23.657V38.2h-23.657v23.843h32.75zM314.915 8.79v23.564h25.327v7.051h-25.327V69h-7.7V1.832H345.9V8.79h-30.986zm89.452 24.678v32.1c-2.288 1.484-5.118 2.628-8.489 3.432-3.37.804-6.911 1.206-10.622 1.206-6.309 0-11.72-1.376-16.235-4.128-4.515-2.753-7.964-6.742-10.345-11.968-2.38-5.226-3.572-11.458-3.572-18.694 0-7.236 1.191-13.468 3.572-18.694 2.381-5.226 5.83-9.215 10.345-11.968 4.515-2.752 9.926-4.128 16.235-4.128a40.2 40.2 0 0 1 9.695 1.16c3.123.773 5.767 1.84 7.932 3.2l-2.32 6.402c-5.319-2.474-10.483-3.711-15.493-3.711-7.236 0-12.694 2.335-16.374 7.004-3.68 4.67-5.52 11.581-5.52 20.735s1.855 16.08 5.566 20.781c3.711 4.7 9.216 7.051 16.514 7.051 4.144 0 7.947-.588 11.411-1.763v-21.06h-12.246v-6.957h19.946zm64.218-31.636V69h-7.7V38.385H428.97V69h-7.7V1.832h7.7v29.595h31.914V1.832h7.7zm19.037 0h7.7V69h-7.7V1.832zm33.14 68.374c-2.846 0-5.536-.371-8.072-1.113-2.536-.742-4.67-1.794-6.401-3.155l2.876-6.215c3.834 2.288 7.669 3.432 11.503 3.432 3.588 0 6.309-.927 8.165-2.783 1.855-1.855 2.783-4.608 2.783-8.257V1.832h7.7v50.376c0 5.69-1.624 10.112-4.87 13.267-3.248 3.154-7.81 4.731-13.685 4.731zm53.177-31.821l-8.628 10.298V69h-7.7V1.832h7.7v37.017l29.78-37.017h9.37l-25.42 30.522L605.947 69h-9.37l-22.637-30.615zm79.618 23.564V69H616.17V1.832h7.7v60.117h29.687zm73.496-60.117V69h-7.515V13.893l-18.926 41.191h-8.071l-18.833-41.191V69h-7.422V1.832h9.277l21.153 45.83 20.967-45.83h9.37zm68.114 0V69h-7.236l-34.605-54.087V69h-7.514V1.832h7.236l34.605 53.901V1.832h7.514zm43.066 68.374c-8.845 0-15.602-2.953-20.271-8.86-4.67-5.906-7.005-14.55-7.005-25.93 0-11.38 2.335-20.024 7.005-25.93 4.67-5.907 11.426-8.86 20.27-8.86 8.845 0 15.618 2.953 20.318 8.86 4.7 5.906 7.05 14.55 7.05 25.93 0 11.38-2.35 20.024-7.05 25.93-4.7 5.907-11.473 8.86-20.317 8.86zm0-6.958c6.37 0 11.179-2.35 14.426-7.05 3.247-4.701 4.87-11.628 4.87-20.782s-1.623-16.08-4.87-20.781c-3.247-4.7-8.056-7.051-14.426-7.051-6.37 0-11.164 2.35-14.38 7.05-3.216 4.701-4.824 11.628-4.824 20.782s1.608 16.08 4.824 20.781c3.216 4.7 8.01 7.051 14.38 7.051zm66.259-61.416c6.618 0 11.782 1.902 15.493 5.706 3.71 3.803 5.566 9.107 5.566 15.91 0 6.804-1.886 12.123-5.659 15.957-3.773 3.835-9.03 5.752-15.771 5.752h-15.122V69h-7.7V1.832h23.193zm0 36.367c4.267 0 7.499-1.252 9.695-3.757 2.195-2.505 3.293-6.17 3.293-10.994 0-4.762-1.129-8.396-3.386-10.9-2.258-2.506-5.582-3.758-9.973-3.758h-15.122V38.2h15.493zm80.453 45.088l-12.617-14.75c-3.03 1.112-6.494 1.67-10.39 1.67-8.845 0-15.602-2.954-20.272-8.86-4.67-5.907-7.004-14.55-7.004-25.931 0-11.38 2.335-20.024 7.004-25.93 4.67-5.907 11.427-8.86 20.271-8.86 8.845 0 15.617 2.953 20.318 8.86 4.7 5.906 7.05 14.55 7.05 25.93 0 14.102-3.587 23.997-10.761 29.688l11.69 12.71-5.289 5.473zm-42.212-47.871c0 9.154 1.608 16.08 4.824 20.781 3.216 4.7 8.01 7.051 14.38 7.051 6.37 0 11.18-2.35 14.426-7.05 3.248-4.701 4.871-11.628 4.871-20.782s-1.623-16.08-4.87-20.781c-3.248-4.7-8.056-7.051-14.427-7.051-6.37 0-11.164 2.35-14.38 7.05-3.216 4.701-4.824 11.628-4.824 20.782zm82.865 7.886h-12.895V69h-7.7V1.832h22.358c6.556 0 11.674 1.825 15.354 5.474 3.68 3.649 5.52 8.72 5.52 15.215 0 5.319-1.237 9.694-3.71 13.127-2.475 3.433-6.031 5.706-10.67 6.819L1051.482 69h-9.463l-16.42-25.698zm-12.895-6.865h14.658c4.206 0 7.391-1.16 9.556-3.48 2.165-2.319 3.247-5.767 3.247-10.344 0-4.515-1.113-7.947-3.34-10.298-2.227-2.35-5.504-3.525-9.834-3.525h-14.287v27.647zm68.022 33.676a44.64 44.64 0 0 1-11.04-1.391c-3.65-.928-6.866-2.258-9.649-3.99l2.69-6.586c5.814 3.34 11.814 5.01 17.999 5.01 4.638 0 8.241-1.006 10.808-3.016 2.566-2.01 3.85-4.809 3.85-8.396 0-3.03-.866-5.489-2.598-7.375-1.732-1.887-4.391-3.294-7.978-4.222l-7.608-2.133c-5.69-1.547-9.865-3.82-12.524-6.82-2.66-2.999-3.99-6.91-3.99-11.735 0-5.752 1.902-10.313 5.706-13.684 3.804-3.37 8.984-5.056 15.54-5.056 3.278 0 6.617.355 10.02 1.067 3.4.71 6.524 1.747 9.37 3.108l-2.691 6.586c-6.309-2.535-11.937-3.803-16.885-3.803-4.206 0-7.468.943-9.787 2.83-2.32 1.886-3.48 4.499-3.48 7.839 0 3.03.85 5.489 2.552 7.375 1.7 1.887 4.345 3.294 7.932 4.221l7.607 2.134c5.69 1.608 9.88 3.897 12.571 6.865 2.69 2.97 4.036 6.866 4.036 11.69 0 6-2.01 10.746-6.03 14.24-4.02 3.495-9.494 5.242-16.421 5.242zM44.108 138.883H26.296V199h-7.7v-60.117H.783v-7.051h43.325v7.05zm36.338 61.323c-7.36 0-13.081-2.196-17.163-6.587-4.082-4.391-6.123-10.514-6.123-18.369v-43.418h7.7v43.325c0 5.938 1.33 10.437 3.99 13.499 2.659 3.061 6.555 4.592 11.689 4.592 5.195 0 9.107-1.53 11.736-4.592 2.628-3.062 3.943-7.561 3.943-13.499v-43.325h7.7v43.418c0 7.917-2.057 14.055-6.17 18.416-4.113 4.36-9.88 6.54-17.302 6.54zm89.219-68.374L147.863 199h-8.628l-21.802-67.168h8.35l17.812 58.54 17.813-58.54h8.257zm84.765 0L237.36 199h-8.628l-12.617-55.479L203.683 199h-8.628l-16.978-67.168h8.072l13.36 58.076 12.523-57.983h8.443l12.803 57.798 13.08-57.891h8.072zM304.034 199l-16.328-27.74L271.471 199h-8.907l20.874-33.862-20.224-33.306h9.092l15.678 26.812 16.05-26.812h8.906l-20.688 32.935L313.126 199h-9.092zm65.933-67.168l-21.06 43.325V199h-7.7v-23.843l-20.874-43.325h8.535l16.328 34.512 16.328-34.512h8.443zm51.18 60.303V199H378.38v-6.958l33.677-53.345h-32.563v-6.865h41.284v6.865L387.1 192.135h34.048zm29.566-44.068c5.443 0 9.803 1.346 13.081 4.036 3.278 2.69 4.917 6.633 4.917 11.829V199h-6.865v-6.309c-3.216 4.886-8.195 7.33-14.937 7.33-4.948 0-8.782-1.3-11.503-3.897-2.722-2.598-4.083-6.247-4.083-10.947 0-5.938 2.413-10.298 7.237-13.081 4.824-2.784 12.4-4.206 22.73-4.268v-3.247c0-3.092-.975-5.443-2.923-7.05-1.948-1.609-4.809-2.413-8.582-2.413-4.144 0-8.04.866-11.69 2.598l-1.947-6.216c4.515-2.288 9.37-3.433 14.565-3.433zm-2.134 45.181c2.536 0 4.84-.48 6.912-1.438 2.072-.959 4.005-2.428 5.798-4.407v-13.637c-7.73.061-13.405.958-17.024 2.69-3.618 1.732-5.427 4.453-5.427 8.164 0 2.845.82 4.994 2.459 6.448 1.639 1.453 4.066 2.18 7.282 2.18zm59.531-45.18c5.876 0 10.453 2.319 13.73 6.957 3.279 4.64 4.918 11.102 4.918 19.39 0 8.102-1.716 14.426-5.15 18.972-3.432 4.546-8.24 6.82-14.425 6.82-2.722 0-5.242-.558-7.561-1.67a15.686 15.686 0 0 1-5.799-4.732V199h-6.958v-71.436h7.515v27.369c1.67-2.227 3.664-3.928 5.984-5.103 2.32-1.175 4.901-1.763 7.746-1.763zm-1.484 45.273c4.082 0 7.159-1.577 9.23-4.732 2.073-3.154 3.109-7.854 3.109-14.101 0-6.309-1.083-11.087-3.247-14.334-2.165-3.247-5.381-4.87-9.649-4.87-2.288 0-4.375.464-6.262 1.391-1.886.928-3.695 2.381-5.427 4.36v26.812a16.235 16.235 0 0 0 5.52 4.036 16.23 16.23 0 0 0 6.726 1.438zm54.057 6.772c-6.989 0-12.462-2.288-16.42-6.865-3.959-4.577-5.938-10.947-5.938-19.111 0-5.196.912-9.757 2.737-13.684 1.824-3.928 4.391-6.974 7.7-9.139 3.309-2.164 7.128-3.247 11.457-3.247 2.474 0 4.948.356 7.422 1.067 2.474.712 4.732 1.717 6.773 3.015l-2.876 6.123c-4.02-2.164-7.855-3.247-11.504-3.247-4.391 0-7.808 1.624-10.252 4.871-2.443 3.247-3.664 7.777-3.664 13.591 0 6.433 1.283 11.303 3.85 14.612 2.567 3.31 6.324 4.964 11.272 4.964 3.71 0 7.36-1.021 10.947-3.062l2.783 5.937c-1.793 1.361-3.927 2.397-6.4 3.108-2.475.712-5.103 1.067-7.887 1.067zm64.356-72.549V199h-6.958v-6.494c-1.67 2.536-3.711 4.453-6.123 5.752-2.413 1.299-5.134 1.948-8.165 1.948-5.875 0-10.452-2.32-13.73-6.958-3.278-4.639-4.917-11.102-4.917-19.39 0-8.102 1.716-14.426 5.149-18.972 3.433-4.546 8.241-6.819 14.426-6.819 2.598 0 4.994.495 7.19 1.485a15.987 15.987 0 0 1 5.613 4.175v-26.163h7.515zm-19.205 65.406c2.289 0 4.376-.464 6.263-1.392 1.886-.928 3.695-2.381 5.427-4.36v-26.812a16.235 16.235 0 0 0-5.52-4.035 16.23 16.23 0 0 0-6.726-1.438c-4.082 0-7.16 1.577-9.231 4.731-2.072 3.154-3.108 7.855-3.108 14.102 0 6.308 1.082 11.086 3.247 14.333s5.38 4.87 9.648 4.87zm75.117-20.967c0 1.794-.123 3.216-.37 4.268h-32.657c.247 5.566 1.655 9.756 4.221 12.57 2.567 2.814 6.2 4.221 10.901 4.221 4.639 0 8.875-1.236 12.71-3.71l2.876 5.937c-1.98 1.546-4.376 2.737-7.19 3.572s-5.767 1.252-8.86 1.252c-7.05 0-12.54-2.288-16.467-6.865-3.927-4.577-5.891-10.947-5.891-19.111 0-8.226 1.809-14.628 5.427-19.204 3.618-4.577 8.705-6.866 15.261-6.866 6.309 0 11.226 2.103 14.751 6.309 3.526 4.206 5.288 10.081 5.288 17.627zm-20.224-17.163c-7.608 0-11.844 5.102-12.71 15.307h25.327c-.062-4.824-1.206-8.581-3.433-11.272-2.226-2.69-5.288-4.035-9.184-4.035zm36.801.835h-8.442v-6.402h8.442v-5.937c0-5.134 1.516-9.154 4.546-12.06 3.03-2.908 7.267-4.361 12.71-4.361 1.918 0 3.556.155 4.917.464v6.68c-1.979-.248-3.618-.371-4.917-.371-3.216 0-5.644.819-7.283 2.458-1.639 1.639-2.458 4.036-2.458 7.19v5.937h12.895v6.402h-12.895V199h-7.515v-43.325zm70.571-6.402V199c0 6.432-1.917 11.442-5.752 15.03-3.834 3.587-9.153 5.38-15.957 5.38-2.535 0-5.04-.263-7.514-.788-2.474-.526-4.577-1.253-6.309-2.18l2.227-6.495c3.587 1.732 7.39 2.598 11.41 2.598 4.701 0 8.273-1.144 10.716-3.433 2.443-2.288 3.665-5.659 3.665-10.112v-8.442c-3.34 4.576-7.948 6.865-13.824 6.865-5.875 0-10.483-2.196-13.823-6.587s-5.01-10.514-5.01-18.37c0-7.669 1.748-13.652 5.242-17.95 3.495-4.3 8.334-6.449 14.52-6.449 2.782 0 5.334.572 7.653 1.717a16.117 16.117 0 0 1 5.798 4.778v-5.289h6.958zm-19.297 40.914c2.289 0 4.392-.464 6.31-1.392 1.916-.928 3.74-2.381 5.473-4.36v-23.936a16.651 16.651 0 0 0-5.567-4.082 16.11 16.11 0 0 0-6.772-1.484c-4.144 0-7.267 1.469-9.37 4.406-2.103 2.938-3.155 7.283-3.155 13.035 0 5.876 1.098 10.313 3.294 13.313 2.196 3 5.458 4.5 9.787 4.5zm60.366-42.12c4.887 0 8.675 1.407 11.365 4.222 2.69 2.814 4.036 6.695 4.036 11.643V199h-7.515v-34.419c0-6.185-3.37-9.277-10.112-9.277-2.35 0-4.53.386-6.54 1.16-2.01.772-4.005 1.963-5.985 3.571V199h-7.514v-71.436h7.514v26.534c4.144-4.02 9.061-6.03 14.751-6.03zm33.926 1.206h7.515V199h-7.515v-49.727zm3.71-8.535c-1.669 0-2.952-.464-3.85-1.391-.896-.928-1.344-2.227-1.344-3.897s.448-2.969 1.345-3.896c.897-.928 2.18-1.392 3.85-1.392s2.953.464 3.85 1.392c.897.927 1.345 2.195 1.345 3.803 0 1.732-.448 3.062-1.345 3.99-.897.927-2.18 1.391-3.85 1.391zm10.176 72.364c3.402-1.176 6-2.443 7.793-3.804 1.794-1.36 3.077-3.062 3.85-5.103.774-2.04 1.16-4.7 1.16-7.978v-46.944h7.515v47.037c0 4.453-.526 8.07-1.577 10.854-1.052 2.783-2.845 5.118-5.381 7.004-2.536 1.887-6.123 3.634-10.762 5.242l-2.598-6.308zm16.514-72.364c-1.67 0-2.953-.464-3.85-1.391-.897-.928-1.345-2.227-1.345-3.897s.448-2.969 1.345-3.896c.897-.928 2.18-1.392 3.85-1.392s2.953.464 3.85 1.392c.897.927 1.345 2.195 1.345 3.803 0 1.732-.448 3.062-1.345 3.99-.897.927-2.18 1.391-3.85 1.391zm37.266 35.254l-6.958 7.793V199h-7.515v-71.436h7.515v46.944l21.523-25.235h9.185l-18.648 20.967L935.53 199h-9.092l-15.678-23.008zm48.12 23.565c-7.237 0-10.855-3.68-10.855-11.04v-60.953h7.515v60.303c0 1.732.402 2.984 1.206 3.758.804.773 2.072 1.16 3.803 1.16 1.114 0 2.32-.125 3.618-.372l.743 6.401a24.77 24.77 0 0 1-6.03.743zm70.57-51.49c4.64 0 8.257 1.407 10.855 4.222 2.598 2.814 3.896 6.695 3.896 11.643V199h-7.514v-34.419c0-3.03-.804-5.334-2.412-6.912-1.608-1.577-3.959-2.365-7.051-2.365-2.227 0-4.33.402-6.309 1.206-1.979.804-3.958 2.072-5.937 3.803.185 1.114.278 2.32.278 3.619V199h-7.515v-34.419c0-3.03-.819-5.334-2.458-6.912-1.639-1.577-4.005-2.365-7.097-2.365-2.227 0-4.299.386-6.216 1.16-1.917.772-3.866 1.963-5.845 3.571V199h-7.514v-49.727h6.958v5.474c4.082-4.453 9.03-6.68 14.843-6.68 3.155 0 5.876.665 8.164 1.995 2.289 1.33 3.99 3.232 5.103 5.706 4.391-5.134 9.648-7.7 15.771-7.7zm55.264 0c4.824 0 8.581 1.407 11.272 4.222 2.69 2.814 4.035 6.695 4.035 11.643V199h-7.514v-34.419c0-3.03-.85-5.334-2.551-6.912-1.701-1.577-4.19-2.365-7.469-2.365-2.35 0-4.515.386-6.494 1.16-1.979.772-3.958 1.963-5.937 3.571V199h-7.515v-49.727h6.958v5.474c4.082-4.453 9.154-6.68 15.215-6.68zM23.79 330.207c-6.68 0-11.813-2.212-15.4-6.634-3.588-4.422-5.381-10.901-5.381-19.436s1.809-15.014 5.427-19.436c3.618-4.423 8.767-6.634 15.447-6.634 6.618 0 11.72 2.211 15.307 6.634 3.588 4.422 5.381 10.9 5.381 19.436 0 8.473-1.793 14.936-5.38 19.39-3.588 4.453-8.721 6.68-15.401 6.68zm0-6.773c4.268 0 7.5-1.624 9.695-4.871 2.195-3.247 3.293-8.056 3.293-14.426 0-6.309-1.098-11.102-3.293-14.38-2.196-3.278-5.396-4.917-9.602-4.917-4.33 0-7.592 1.639-9.788 4.917-2.195 3.278-3.293 8.071-3.293 14.38 0 6.37 1.098 11.179 3.293 14.426 2.196 3.247 5.427 4.87 9.695 4.87zm55.479-45.367c5.875 0 10.452 2.32 13.73 6.958 3.278 4.64 4.917 11.102 4.917 19.39 0 8.102-1.716 14.426-5.149 18.972-3.433 4.546-8.241 6.82-14.426 6.82-2.598 0-4.994-.496-7.19-1.485a15.987 15.987 0 0 1-5.613-4.175v23.657h-7.515v-68.93h6.958v6.494c1.67-2.536 3.711-4.454 6.123-5.752 2.413-1.3 5.134-1.949 8.165-1.949zm-1.485 45.274c4.082 0 7.16-1.577 9.231-4.732 2.072-3.154 3.108-7.854 3.108-14.101 0-6.309-1.082-11.087-3.247-14.334s-5.38-4.87-9.648-4.87c-2.289 0-4.376.464-6.263 1.391-1.886.928-3.695 2.381-5.427 4.36v26.812a16.235 16.235 0 0 0 5.52 4.036 16.23 16.23 0 0 0 6.726 1.438zm70.044-44.068v68.931h-7.515v-24.863c-1.67 2.226-3.664 3.927-5.983 5.102-2.32 1.175-4.902 1.763-7.747 1.763-5.876 0-10.452-2.32-13.73-6.958-3.278-4.639-4.917-11.102-4.917-19.39 0-8.102 1.716-14.426 5.148-18.972 3.433-4.546 8.242-6.819 14.427-6.819 2.721 0 5.241.557 7.56 1.67a15.686 15.686 0 0 1 5.8 4.732v-5.196h6.957zm-19.204 43.697c2.288 0 4.376-.464 6.262-1.392 1.887-.928 3.696-2.381 5.427-4.36v-26.812a16.235 16.235 0 0 0-5.52-4.035 16.23 16.23 0 0 0-6.726-1.438c-4.082 0-7.159 1.577-9.23 4.731-2.073 3.154-3.109 7.855-3.109 14.102 0 6.308 1.083 11.086 3.248 14.333 2.164 3.247 5.38 4.87 9.648 4.87zm56.499-44.717c2.227 0 4.268.402 6.123 1.206l-1.67 7.33c-2.35-.681-4.484-1.021-6.401-1.021-2.35 0-4.407.494-6.17 1.484-1.762.99-3.355 2.536-4.777 4.639V329h-7.515v-49.727h6.958v6.958c3.525-5.319 8.01-7.978 13.452-7.978zm28.667 51.86c-3.154 0-6.2-.386-9.138-1.16-2.938-.773-5.52-1.87-7.747-3.293l2.69-6.401c4.33 2.721 9.062 4.082 14.195 4.082 3.525 0 6.2-.65 8.025-1.948 1.824-1.3 2.737-3.217 2.737-5.752 0-1.98-.572-3.557-1.717-4.732-1.144-1.175-2.953-2.072-5.427-2.69l-6.587-1.577c-4.515-1.052-7.855-2.706-10.02-4.964-2.164-2.257-3.246-5.21-3.246-8.86 0-4.576 1.53-8.164 4.592-10.761 3.061-2.598 7.344-3.897 12.85-3.897 2.72 0 5.442.34 8.163 1.02 2.722.681 5.165 1.578 7.33 2.691l-2.97 6.401c-4.329-2.226-8.566-3.34-12.71-3.34-3.216 0-5.659.62-7.329 1.856-1.67 1.237-2.504 3.03-2.504 5.38 0 1.856.587 3.356 1.762 4.5 1.175 1.145 3 2.026 5.474 2.644l6.587 1.578c4.515 1.051 7.84 2.736 9.973 5.056 2.134 2.32 3.2 5.365 3.2 9.138 0 4.7-1.607 8.38-4.824 11.04-3.216 2.66-7.669 3.99-13.359 3.99zm48.242-.464c-5.071 0-8.906-1.376-11.504-4.128-2.597-2.752-3.896-6.85-3.896-12.292v-27.554h-8.443v-6.402h8.443v-14.658h7.514v14.658h14.844v6.402h-14.844v26.44c0 3.711.743 6.433 2.227 8.164 1.484 1.732 3.773 2.598 6.865 2.598 1.67 0 3.371-.278 5.103-.835l1.299 6.494c-2.289.742-4.825 1.113-7.608 1.113zm54.737-50.376V329h-6.958v-6.123c-3.588 4.886-8.567 7.33-14.937 7.33-4.7 0-8.38-1.393-11.04-4.176-2.66-2.783-3.99-6.648-3.99-11.596v-35.162h7.515v34.42c0 3.03.82 5.334 2.459 6.911 1.639 1.577 4.066 2.366 7.283 2.366 2.474 0 4.685-.449 6.633-1.345 1.948-.897 3.788-2.304 5.52-4.222v-38.13h7.515zm53.994 0L353.508 329h-8.257l-17.349-49.727h8.164l13.453 41.656 13.266-41.656h7.979zm72.177 0L428.376 329h-8.35l-10.483-39.336L399.153 329h-8.257l-14.566-49.727h8.071l10.762 41.47 10.576-41.47h7.886l10.762 41.47 10.669-41.47h7.885zM481.071 329l-11.782-19.297L457.6 329h-8.627l16.235-25.142-15.586-24.585h8.814l11.132 18.37 11.504-18.37h8.721l-16.143 24.214L489.978 329h-8.907zm57.056-49.727l-17.349 50.005c-3.278 9.278-10.669 15.957-22.173 20.04l-2.69-6.588c4.453-1.546 8.056-3.386 10.808-5.52a22.583 22.583 0 0 0 6.448-7.839l-17.534-50.098h8.164l13.174 40.82 13.173-40.82h7.979zm41.748 43.326V329h-35.161v-6.401l26.255-36.924h-25.513v-6.402h34.048v6.402l-26.162 36.924h26.533zm39.15-60.767V329h-7.607v-58.818l-16.42 5.38-2.32-6.494 19.853-7.236h6.494zm61.695 60.488V329h-39.522v-6.772l23.38-28.39c2.844-3.525 4.839-6.416 5.983-8.673 1.144-2.258 1.716-4.5 1.716-6.727 0-3.278-1.067-5.875-3.2-7.792-2.134-1.918-5.087-2.876-8.86-2.876-2.66 0-5.35.448-8.071 1.345a28.51 28.51 0 0 0-7.515 3.757l-3.618-6.03c2.412-1.856 5.427-3.356 9.045-4.5 3.618-1.144 7.16-1.716 10.623-1.716 5.813 0 10.483 1.562 14.008 4.685 3.526 3.123 5.289 7.252 5.289 12.385 0 3.03-.727 6.108-2.18 9.231-1.454 3.124-3.913 6.788-7.376 10.994l-20.318 24.4h30.616zm32.934-33.862c5.876.124 10.576 2.01 14.102 5.66 3.525 3.648 5.288 8.442 5.288 14.38 0 4.267-.928 8.055-2.783 11.364-1.856 3.309-4.453 5.86-7.793 7.654-3.34 1.793-7.237 2.69-11.69 2.69-3.216 0-6.571-.48-10.066-1.438-3.494-.959-6.51-2.242-9.045-3.85l3.154-6.587a36.51 36.51 0 0 0 7.979 3.48c2.783.834 5.442 1.252 7.978 1.252 4.515 0 8.025-1.284 10.53-3.85 2.505-2.567 3.757-6.14 3.757-10.716 0-4.268-1.206-7.607-3.618-10.02-2.412-2.412-5.783-3.618-10.112-3.618-2.35 0-4.422.279-6.216.835l-2.969-3.71 20.41-23.472h-29.78v-6.68h38.316v6.68l-17.442 19.946zm75.24 19.204v6.773h-8.721V329h-7.422v-14.565h-29.688v-6.773l26.348-45.83h10.762v45.83h8.72zm-16.143 0v-38.686l-21.523 38.686h21.523zm44.624-20.967c3.958 0 7.453.882 10.483 2.644 3.031 1.763 5.366 4.252 7.005 7.469 1.639 3.216 2.458 6.927 2.458 11.132 0 4.392-.927 8.273-2.783 11.643-1.855 3.371-4.484 5.984-7.886 7.84-3.401 1.855-7.329 2.783-11.782 2.783-3.154 0-6.355-.448-9.602-1.345s-6.015-2.088-8.303-3.572l3.061-6.587a32.074 32.074 0 0 0 7.376 3.2c2.628.774 5.118 1.16 7.468 1.16 4.515 0 8.071-1.33 10.67-3.989 2.597-2.66 3.896-6.34 3.896-11.04 0-4.515-1.222-8.04-3.665-10.576-2.443-2.536-5.798-3.804-10.066-3.804a21.4 21.4 0 0 0-6.123.882c-1.98.587-3.71 1.438-5.195 2.55l-4.732-2.597 2.041-32.656h32.75v6.68h-26.163l-1.391 20.41c1.484-.68 3.154-1.222 5.01-1.624a25.8 25.8 0 0 1 5.473-.603zm54.272.464c3.959 0 7.453.882 10.484 2.644 3.03 1.763 5.38 4.237 7.05 7.422 1.67 3.185 2.506 6.88 2.506 11.087 0 4.329-.897 8.148-2.69 11.457-1.795 3.309-4.3 5.876-7.516 7.7-3.216 1.825-6.958 2.737-11.225 2.737-4.33 0-8.149-.943-11.458-2.83-3.309-1.886-5.86-4.545-7.653-7.978-1.794-3.433-2.69-7.406-2.69-11.921 0-4.392.927-8.752 2.782-13.081 1.856-4.33 4.917-9.278 9.185-14.844l14.473-18.926 6.215 4.546-14.565 18.276a166.637 166.637 0 0 0-4.453 5.845c2.721-1.423 5.906-2.134 9.555-2.134zm-1.298 36.275c4.205 0 7.499-1.315 9.88-3.943 2.381-2.629 3.572-6.262 3.572-10.901 0-4.763-1.253-8.489-3.758-11.18-2.504-2.69-5.983-4.035-10.437-4.035-3.958 0-7.638 1.02-11.04 3.062-1.484 3.154-2.226 6.772-2.226 10.854 0 5.072 1.237 9.03 3.71 11.875 2.475 2.845 5.907 4.268 10.299 4.268zm72.085-61.602v6.68l-26.626 61.416-7.051-2.969 25.884-58.447H902.17v-6.68h40.264zm31.82 68.374c-4.39 0-8.271-.742-11.642-2.227-3.371-1.484-5.969-3.587-7.793-6.308-1.825-2.721-2.737-5.845-2.737-9.37 0-3.897 1.314-7.515 3.943-10.855 2.628-3.34 6.107-5.814 10.437-7.422-3.464-1.237-6.247-3.386-8.35-6.447-2.103-3.062-3.154-6.448-3.154-10.159 0-3.34.789-6.278 2.366-8.814 1.577-2.535 3.834-4.499 6.772-5.89 2.938-1.392 6.324-2.088 10.159-2.088 3.835 0 7.22.696 10.159 2.087 2.937 1.392 5.195 3.356 6.772 5.891 1.577 2.536 2.366 5.474 2.366 8.814 0 3.71-1.052 7.05-3.155 10.02-2.102 2.968-4.886 5.071-8.35 6.308 4.33 1.299 7.81 3.572 10.438 6.819 2.628 3.247 3.943 6.942 3.943 11.086 0 3.65-.913 6.881-2.737 9.695-1.825 2.814-4.422 4.994-7.793 6.54-3.37 1.547-7.252 2.32-11.643 2.32zm.465-39.058c3.463-1.175 6.185-2.922 8.164-5.241 1.979-2.32 2.969-4.902 2.969-7.747 0-3.402-1.036-6.076-3.108-8.025-2.072-1.948-4.902-2.922-8.49-2.922-3.586 0-6.416.959-8.488 2.876-2.072 1.917-3.108 4.546-3.108 7.886 0 2.907 1.083 5.52 3.247 7.839 2.165 2.32 5.103 4.097 8.814 5.334zm-.464 32.378c4.453 0 7.963-1.067 10.53-3.2 2.566-2.134 3.85-5.026 3.85-8.675 0-3.03-1.315-5.89-3.943-8.581-2.629-2.69-6.231-4.84-10.808-6.448-4.392 1.546-7.824 3.634-10.298 6.262-2.474 2.629-3.711 5.49-3.711 8.582 0 3.773 1.268 6.726 3.804 8.86 2.536 2.133 6.06 3.2 10.576 3.2zm51.86-62.9c4.33 0 8.149.943 11.458 2.83 3.309 1.886 5.86 4.545 7.654 7.978 1.793 3.433 2.69 7.406 2.69 11.921 0 4.392-.928 8.752-2.783 13.082-1.856 4.329-4.917 9.277-9.185 14.843l-14.472 18.926-6.216-4.546 14.565-18.276a166.645 166.645 0 0 0 4.453-5.845c-2.721 1.423-5.906 2.134-9.555 2.134-3.959 0-7.453-.881-10.484-2.644-3.03-1.763-5.38-4.237-7.05-7.422-1.67-3.185-2.505-6.88-2.505-11.086 0-4.33.896-8.15 2.69-11.458 1.794-3.309 4.298-5.876 7.515-7.7 3.216-1.825 6.958-2.737 11.225-2.737zm-13.545 21.616c0 4.763 1.253 8.489 3.758 11.18 2.505 2.69 5.984 4.035 10.437 4.035 3.958 0 7.638-1.02 11.04-3.061 1.484-3.155 2.226-6.773 2.226-10.855 0-5.072-1.237-9.03-3.71-11.875-2.475-2.845-5.907-4.268-10.299-4.268-4.205 0-7.499 1.315-9.88 3.943-2.381 2.629-3.572 6.262-3.572 10.901zm65.777 47.964c-7.546 0-13.128-2.814-16.746-8.442-3.618-5.629-5.427-14.411-5.427-26.348s1.809-20.72 5.427-26.348c3.618-5.628 9.17-8.442 16.653-8.442 7.546 0 13.127 2.814 16.746 8.442 3.618 5.629 5.427 14.411 5.427 26.348s-1.81 20.72-5.427 26.348c-3.619 5.628-9.17 8.442-16.653 8.442zm0-6.865c4.886 0 8.473-2.258 10.761-6.773 2.289-4.515 3.433-11.565 3.433-21.152 0-9.587-1.16-16.637-3.479-21.152-2.32-4.515-5.922-6.773-10.808-6.773s-8.473 2.258-10.762 6.773c-2.288 4.515-3.432 11.565-3.432 21.152 0 9.587 1.16 16.637 3.479 21.152 2.319 4.515 5.922 6.773 10.808 6.773zM14.514 391.368c-2.103 2.227-3.603 4.422-4.5 6.587-.897 2.165-1.345 4.67-1.345 7.515 0 2.226.155 4.113.464 5.659H1.525c-.247-1.67-.37-3.525-.37-5.567 0-3.278.819-6.354 2.458-9.23 1.639-2.876 4.19-5.675 7.654-8.396l3.247 3.432zm19.111 49.263c-.186-2.35-.278-4.206-.278-5.567 0-3.463.726-6.385 2.18-8.767 1.453-2.38 4.128-5.118 8.025-8.21 2.474-1.98 4.16-3.68 5.056-5.103.897-1.422 1.345-3.185 1.345-5.288 0-6.494-3.587-9.74-10.762-9.74-4.762 0-9.71 1.607-14.843 4.823l-3.155-6.494c5.381-3.773 11.442-5.659 18.184-5.659 5.876 0 10.452 1.453 13.73 4.36 3.278 2.907 4.917 6.99 4.917 12.246 0 3.093-.695 5.768-2.087 8.025-1.392 2.258-3.85 4.747-7.375 7.469-3.093 2.412-5.165 4.453-6.216 6.123-1.052 1.67-1.577 3.834-1.577 6.494 0 1.36.092 3.123.278 5.288h-7.422zm3.71 19.575c-1.73 0-3.076-.48-4.035-1.438-.958-.959-1.438-2.304-1.438-4.036 0-1.731.48-3.092 1.438-4.082.959-.99 2.304-1.484 4.036-1.484 1.732 0 3.077.48 4.036 1.438.958.959 1.438 2.304 1.438 4.036 0 1.793-.48 3.17-1.438 4.128-.96.959-2.304 1.438-4.036 1.438zm28.297-51.025c2.103-2.227 3.603-4.423 4.5-6.587.896-2.165 1.345-4.67 1.345-7.515 0-2.226-.155-4.113-.464-5.66h7.607c.248 1.67.371 3.526.371 5.567 0 3.278-.82 6.355-2.458 9.231-1.64 2.876-4.19 5.675-7.654 8.396l-3.247-3.432zm33.027-17.813c-2.103 2.227-3.603 4.422-4.5 6.587-.896 2.165-1.345 4.67-1.345 7.515 0 2.226.155 4.113.464 5.659h-7.607c-.247-1.67-.371-3.525-.371-5.567 0-3.278.82-6.354 2.458-9.23 1.64-2.876 4.19-5.675 7.654-8.396l3.247 3.432zm14.566 0c-2.103 2.227-3.603 4.422-4.5 6.587-.897 2.165-1.345 4.67-1.345 7.515 0 2.226.155 4.113.464 5.659h-7.608c-.247-1.67-.37-3.525-.37-5.567 0-3.278.819-6.354 2.458-9.23 1.639-2.876 4.19-5.675 7.654-8.396l3.247 3.432zm13.359.464h8.813l-1.391 48.799h-6.03l-1.392-48.799zm4.453 68.374c-1.732 0-3.077-.48-4.036-1.438-.958-.959-1.438-2.304-1.438-4.036 0-1.731.48-3.092 1.438-4.082.96-.99 2.304-1.484 4.036-1.484 1.732 0 3.077.48 4.036 1.438.958.959 1.438 2.304 1.438 4.036 0 1.793-.48 3.17-1.438 4.128-.959.959-2.304 1.438-4.036 1.438zm17.905-51.025c2.103-2.227 3.603-4.423 4.5-6.587.897-2.165 1.345-4.67 1.345-7.515 0-2.226-.155-4.113-.464-5.66h7.608c.247 1.67.37 3.526.37 5.567 0 3.278-.819 6.355-2.458 9.231-1.639 2.876-4.19 5.675-7.654 8.396l-3.247-3.432zm14.566 0c2.103-2.227 3.603-4.423 4.5-6.587.896-2.165 1.345-4.67 1.345-7.515 0-2.226-.155-4.113-.464-5.66h7.607c.247 1.67.371 3.526.371 5.567 0 3.278-.82 6.355-2.458 9.231-1.64 2.876-4.19 5.675-7.654 8.396l-3.247-3.432zm36.089 59.653c-4.453-5.752-7.886-12.246-10.298-19.482-2.412-7.237-3.618-14.566-3.618-21.988 0-7.484 1.206-14.859 3.618-22.126 2.412-7.267 5.845-13.777 10.298-19.529l5.659 4.268c-3.897 5.195-6.85 10.931-8.86 17.209-2.01 6.278-3.015 12.973-3.015 20.085 0 7.113 1.005 13.808 3.015 20.086 2.01 6.278 4.963 12.014 8.86 17.21l-5.66 4.267zm30.244-37.48c-4.577 0-8.025-1.701-10.344-5.103-2.32-3.402-3.48-8.473-3.48-15.215 0-6.741 1.16-11.828 3.48-15.261 2.319-3.433 5.767-5.149 10.344-5.149 4.577 0 8.04 1.716 10.39 5.149 2.35 3.433 3.526 8.52 3.526 15.261 0 6.742-1.175 11.813-3.526 15.215-2.35 3.402-5.813 5.103-10.39 5.103zm37.573-39.522h7.236L239.49 459h-7.237l35.161-67.168zm-37.573 33.77c2.35 0 4.097-1.176 5.242-3.526 1.144-2.35 1.716-6.03 1.716-11.04 0-5.01-.572-8.705-1.716-11.086-1.145-2.381-2.892-3.572-5.242-3.572s-4.098 1.19-5.242 3.572c-1.144 2.38-1.716 6.076-1.716 11.086 0 5.01.572 8.69 1.716 11.04 1.144 2.35 2.892 3.526 5.242 3.526zm47.221 34.604c-4.576 0-8.04-1.716-10.39-5.149-2.35-3.433-3.526-8.52-3.526-15.261 0-6.742 1.176-11.813 3.526-15.215 2.35-3.402 5.814-5.102 10.39-5.102 4.577 0 8.025 1.7 10.345 5.102 2.32 3.402 3.479 8.473 3.479 15.215 0 6.741-1.16 11.828-3.48 15.261-2.319 3.433-5.767 5.15-10.344 5.15zm0-5.752c2.35 0 4.098-1.19 5.242-3.572 1.144-2.38 1.717-6.076 1.717-11.086 0-5.01-.573-8.69-1.717-11.04-1.144-2.35-2.891-3.526-5.241-3.526-2.413 0-4.19 1.176-5.335 3.526-1.144 2.35-1.716 6.03-1.716 11.04 0 5.072.572 8.782 1.716 11.133 1.144 2.35 2.922 3.525 5.334 3.525zm24.585 10.112c3.897-5.195 6.85-10.931 8.86-17.21 2.01-6.277 3.015-12.972 3.015-20.085 0-7.112-1.005-13.807-3.015-20.085-2.01-6.278-4.963-12.014-8.86-17.21l5.66-4.267c4.453 5.752 7.885 12.262 10.297 19.529 2.413 7.267 3.619 14.642 3.619 22.126 0 7.422-1.206 14.751-3.619 21.988-2.412 7.236-5.844 13.73-10.297 19.482l-5.66-4.268zm41.192-71.435v68.281h13.73v6.123h-20.874v-80.527h20.874v6.123h-13.73zm61.416 23.379l-2.876 17.812h11.597v5.567h-12.432L397.482 459h-6.4l3.06-19.111h-12.71L378.373 459h-6.402l3.061-19.111h-12.06v-5.567h12.895l2.876-17.812h-11.968v-5.567h12.803l3.062-19.111h6.401l-3.061 19.111h12.71l3.061-19.111h6.401l-3.061 19.111h11.875v5.567h-12.71zm-6.401 0h-12.71l-2.876 17.812h12.71l2.876-17.812zm46.479-29.502v80.527h-20.874v-6.123h13.73v-68.281h-13.73v-6.123h20.874zm38.13 82.197c-4.206-.928-7.5-2.165-9.88-3.71-2.382-1.547-4.098-3.634-5.15-6.263-1.05-2.629-1.577-6.046-1.577-10.252v-11.318c0-2.474-.85-4.298-2.55-5.474-1.702-1.175-4.315-1.793-7.84-1.855v-6.123c3.525-.062 6.138-.68 7.84-1.856 1.7-1.175 2.55-3 2.55-5.473V405.47c0-4.206.526-7.608 1.578-10.205 1.051-2.598 2.767-4.67 5.149-6.216 2.38-1.546 5.674-2.783 9.88-3.711l1.763 6.308c-2.97.68-5.258 1.547-6.866 2.598-1.608 1.052-2.752 2.443-3.432 4.175-.68 1.732-1.02 4.082-1.02 7.05v11.412c0 2.845-.588 5.118-1.763 6.819-1.176 1.7-3 2.86-5.474 3.479 4.824 1.299 7.236 4.793 7.236 10.483v11.318c0 2.97.34 5.335 1.02 7.098.681 1.762 1.825 3.17 3.433 4.22 1.608 1.052 3.897 1.918 6.866 2.598l-1.763 6.31zm44.531-60.581c3.711 0 7.113 1.02 10.205 3.062v19.39c0 3.772 1.608 5.658 4.824 5.658 2.598 0 4.624-1.237 6.077-3.71 1.454-2.475 2.18-5.938 2.18-10.391 0-8.164-2.164-14.52-6.494-19.065-4.33-4.546-10.36-6.819-18.09-6.819-7.732 0-13.747 2.52-18.045 7.561-4.299 5.04-6.448 12.076-6.448 21.106 0 9.092 2.242 16.173 6.726 21.245 4.484 5.072 10.746 7.608 18.787 7.608 5.195 0 9.772-1.083 13.73-3.248l2.412 5.474c-2.04 1.175-4.468 2.103-7.282 2.783-2.814.68-5.768 1.02-8.86 1.02-6.37 0-11.999-1.453-16.885-4.36-4.886-2.906-8.659-6.988-11.318-12.246-2.66-5.257-3.99-11.349-3.99-18.276s1.3-13.02 3.897-18.276c2.598-5.258 6.247-9.34 10.947-12.246 4.7-2.907 10.143-4.36 16.328-4.36 6.123 0 11.504 1.329 16.143 3.988 4.639 2.66 8.226 6.417 10.762 11.272 2.535 4.856 3.803 10.468 3.803 16.839 0 5.814-1.268 10.499-3.803 14.055-2.536 3.556-5.876 5.334-10.02 5.334-1.732 0-3.278-.324-4.639-.974-1.36-.65-2.412-1.53-3.154-2.644-1.113 1.361-2.412 2.335-3.896 2.923-1.485.587-3.217.881-5.196.881-4.205 0-7.499-1.469-9.88-4.407-2.381-2.938-3.572-7.035-3.572-12.292 0-5.32 1.299-9.463 3.897-12.432 2.597-2.969 6.215-4.453 10.854-4.453zm4.36 6.216c-1.608-.619-3.154-.928-4.638-.928-2.722 0-4.793.99-6.216 2.969-1.423 1.979-2.134 4.855-2.134 8.628 0 3.773.696 6.618 2.088 8.535 1.391 1.917 3.448 2.876 6.169 2.876 1.67 0 3.247-.464 4.731-1.392V414.84zm34.883 48.056c2.97-.68 5.257-1.546 6.866-2.597 1.608-1.052 2.752-2.459 3.432-4.221.68-1.763 1.02-4.129 1.02-7.098v-11.318c0-5.69 2.413-9.184 7.237-10.483-2.474-.619-4.299-1.778-5.474-3.48-1.175-1.7-1.762-3.973-1.762-6.818V405.47c0-2.969-.34-5.32-1.02-7.051-.681-1.732-1.825-3.123-3.433-4.175-1.609-1.051-3.897-1.917-6.866-2.598l1.763-6.308c4.206.928 7.5 2.165 9.88 3.71 2.382 1.547 4.098 3.619 5.15 6.217 1.05 2.597 1.576 5.999 1.576 10.205v11.41c0 2.475.85 4.3 2.552 5.474 1.7 1.176 4.314 1.794 7.84 1.856v6.123c-3.526.062-6.14.68-7.84 1.855-1.701 1.176-2.552 3-2.552 5.474v11.318c0 4.268-.525 7.7-1.577 10.298-1.051 2.598-2.767 4.67-5.149 6.216-2.38 1.546-5.674 2.783-9.88 3.711l-1.763-6.309zm63.179-72.456h6.494l-29.687 76.539h-6.587l29.78-76.539zm60.117 69.673l-8.257-9.648c-2.535 3.34-5.396 5.798-8.581 7.375-3.185 1.577-6.819 2.366-10.901 2.366-5.628 0-10.02-1.438-13.174-4.314-3.154-2.876-4.731-6.88-4.731-12.014 0-3.093.618-5.798 1.855-8.118 1.237-2.32 3.309-4.654 6.216-7.004l6.401-5.01-2.783-3.34c-2.598-3.03-4.422-5.659-5.474-7.885-1.05-2.227-1.577-4.608-1.577-7.144 0-4.639 1.516-8.257 4.546-10.855 3.03-2.597 7.267-3.896 12.71-3.896 5.381 0 9.587 1.252 12.617 3.757 3.031 2.505 4.546 6.015 4.546 10.53 0 3.03-.835 5.814-2.505 8.35-1.67 2.536-4.607 5.473-8.813 8.813l-2.969 2.412 11.875 14.01 6.494-13.639h7.515l-7.886 16.792-1.299 2.598 9.556 11.226-5.38 4.638zM664.206 419.2l3.618-2.876c2.969-2.35 4.98-4.267 6.03-5.752 1.052-1.484 1.578-3.154 1.578-5.01 0-5.504-3.247-8.256-9.742-8.256-3.154 0-5.535.68-7.143 2.04-1.608 1.361-2.412 3.34-2.412 5.938 0 1.732.402 3.402 1.206 5.01.804 1.608 2.35 3.71 4.638 6.309l2.227 2.597zm-1.948 34.14c3.03 0 5.736-.664 8.117-1.994 2.382-1.33 4.53-3.386 6.448-6.17l-13.916-16.235-4.638 3.711c-2.35 1.918-4.005 3.696-4.964 5.335-.958 1.639-1.438 3.51-1.438 5.613 0 3.216.882 5.643 2.644 7.282 1.763 1.64 4.345 2.459 7.747 2.459zm67.724 13.639l-29.687-76.539h6.494l29.78 76.539h-6.587zm13.824-41.841l24.4-27.74 5.565 5.103-20.317 22.637 20.317 22.636-5.566 5.103-24.4-27.74zm39.8 3.061h27.646v6.587h-27.647V428.2zm80.62.186h-17.813v19.297h-7.236v-19.297h-17.813v-7.144h17.813v-19.297h7.236v19.297h17.813v7.144zm31.728-15.122c-1.546 0-2.799-.48-3.757-1.438-.959-.959-1.438-2.211-1.438-3.758 0-1.546.48-2.814 1.438-3.803.958-.99 2.21-1.485 3.757-1.485 1.484 0 2.706.495 3.665 1.485.958.99 1.438 2.257 1.438 3.803 0 1.547-.48 2.799-1.438 3.758-.959.958-2.18 1.438-3.665 1.438zm-20.225 8.071h40.264v6.958H875.73v-6.958zm20.225 25.605c-1.546 0-2.799-.494-3.757-1.484-.959-.99-1.438-2.257-1.438-3.804 0-1.546.48-2.798 1.438-3.757.958-.959 2.21-1.438 3.757-1.438 1.484 0 2.706.48 3.665 1.438.958.959 1.438 2.211 1.438 3.757 0 1.547-.48 2.814-1.438 3.804-.959.99-2.18 1.484-3.665 1.484zm57.798-22.08l14.75 15.494-4.823 5.01-14.751-15.401-14.658 15.4-4.917-5.01 14.75-15.493-14.75-15.493 4.917-5.01 14.658 15.4 14.75-15.4 4.825 5.01-14.751 15.493zm28.945-13.916h38.594v7.051h-38.594v-7.05zm0 21.338h38.594v7.051h-38.594v-7.05zm50.655 15.493l20.317-22.636-20.317-22.637 5.566-5.103 24.4 27.74-24.4 27.739-5.566-5.103z"/>
</svg>
