<svg xmlns="http://www.w3.org/2000/svg" width="1107" height="145" viewBox="0 0 1107 145">
    <g fill="#000" fill-rule="evenodd">
        <path d="M14.417 40.698c-2.721 0-5.111-.456-7.17-1.37-2.06-.912-3.653-2.21-4.78-3.893C1.337 33.752.773 31.818.773 29.634c0-2.113.708-4.073 2.122-5.882 1.414-1.808 3.285-3.142 5.613-4.001a9.243 9.243 0 0 1-4.646-3.545c-1.164-1.683-1.746-3.527-1.746-5.532 0-2.041.51-3.84 1.53-5.398 1.021-1.558 2.454-2.757 4.298-3.599C9.789.836 11.946.415 14.417.415c2.47 0 4.637.42 6.499 1.262 1.862.842 3.303 2.041 4.324 3.599 1.02 1.558 1.53 3.357 1.53 5.398 0 2.005-.59 3.822-1.772 5.451-1.182 1.63-2.757 2.785-4.727 3.465 2.364.716 4.262 1.987 5.694 3.813 1.432 1.827 2.148 3.903 2.148 6.23 0 2.185-.564 4.119-1.692 5.802-1.128 1.683-2.73 2.98-4.807 3.894-2.077.913-4.476 1.37-7.197 1.37zm.269-23.74c1.54-.501 2.73-1.244 3.571-2.229.842-.985 1.263-2.104 1.263-3.357 0-1.504-.448-2.685-1.343-3.545-.895-.86-2.149-1.289-3.76-1.289-1.576 0-2.81.43-3.706 1.29-.895.859-1.343 2.04-1.343 3.544 0 1.218.475 2.319 1.424 3.303.948.985 2.246 1.746 3.894 2.283zm-.269 17.563c1.97 0 3.527-.474 4.673-1.423 1.146-.949 1.719-2.265 1.719-3.948 0-1.36-.582-2.64-1.746-3.84-1.164-1.2-2.784-2.175-4.86-2.927-1.934.644-3.438 1.557-4.513 2.74-1.074 1.18-1.61 2.523-1.61 4.027 0 1.683.563 3 1.691 3.948 1.128.949 2.677 1.423 4.646 1.423zm30.558 6.177c-4.62 0-8.048-1.611-10.286-4.834-2.238-3.222-3.357-8.325-3.357-15.307 0-6.983 1.11-12.085 3.33-15.308 2.22-3.223 5.64-4.834 10.26-4.834 4.654 0 8.1 1.611 10.339 4.834 2.238 3.223 3.357 8.325 3.357 15.308 0 6.982-1.12 12.085-3.357 15.307-2.238 3.223-5.667 4.834-10.286 4.834zm0-6.552c2.148 0 3.706-1.075 4.673-3.223.967-2.149 1.45-5.604 1.45-10.366 0-4.763-.483-8.218-1.45-10.367-.967-2.148-2.543-3.222-4.727-3.222-2.112 0-3.652 1.074-4.619 3.222-.967 2.149-1.45 5.604-1.45 10.367 0 4.762.483 8.217 1.45 10.366.967 2.148 2.524 3.223 4.673 3.223zm30.558 6.552c-4.62 0-8.048-1.611-10.286-4.834-2.238-3.222-3.357-8.325-3.357-15.307 0-6.983 1.11-12.085 3.33-15.308C67.44 2.026 70.86.415 75.48.415c4.654 0 8.1 1.611 10.339 4.834 2.237 3.223 3.356 8.325 3.356 15.308 0 6.982-1.119 12.085-3.356 15.307-2.238 3.223-5.667 4.834-10.286 4.834zm0-6.552c2.148 0 3.706-1.075 4.673-3.223.967-2.149 1.45-5.604 1.45-10.366 0-4.763-.483-8.218-1.45-10.367-.967-2.148-2.543-3.222-4.727-3.222-2.112 0-3.652 1.074-4.619 3.222-.967 2.149-1.45 5.604-1.45 10.367 0 4.762.483 8.217 1.45 10.366.967 2.148 2.524 3.223 4.673 3.223zM13.528 144.645c-2.578 0-4.843-.457-6.794-1.37-1.952-.913-3.456-2.202-4.512-3.867-1.056-1.665-1.584-3.59-1.584-5.774 0-2.113.662-4.073 1.987-5.882 1.325-1.808 3.08-3.142 5.264-4.001a8.997 8.997 0 0 1-4.351-3.545c-1.074-1.647-1.611-3.491-1.611-5.532 0-3.08 1.056-5.55 3.169-7.412 2.112-1.862 4.923-2.793 8.432-2.793 3.51 0 6.33.93 8.46 2.793 2.13 1.862 3.195 4.332 3.195 7.412 0 2.005-.546 3.822-1.638 5.451-1.092 1.63-2.569 2.785-4.43 3.465 2.22.68 4 1.942 5.343 3.786 1.343 1.845 2.014 3.93 2.014 6.258 0 2.184-.537 4.109-1.61 5.774-1.075 1.665-2.588 2.954-4.54 3.867-1.95.913-4.216 1.37-6.794 1.37zm.269-23.526c1.36-.465 2.426-1.208 3.196-2.229.77-1.02 1.154-2.193 1.154-3.518 0-1.575-.411-2.81-1.235-3.706-.824-.895-1.952-1.343-3.384-1.343s-2.551.448-3.357 1.343c-.805.895-1.208 2.13-1.208 3.706 0 1.325.42 2.489 1.262 3.491.841 1.003 2.032 1.755 3.572 2.256zm-.269 17.617c1.826 0 3.259-.492 4.297-1.477 1.038-.984 1.558-2.354 1.558-4.109 0-1.468-.537-2.81-1.612-4.028-1.074-1.217-2.56-2.184-4.458-2.9-1.754.608-3.124 1.53-4.109 2.766-.984 1.235-1.477 2.623-1.477 4.162 0 1.755.51 3.125 1.531 4.11 1.02.984 2.444 1.476 4.27 1.476zm28.302 5.909c-4.332 0-7.546-1.612-9.64-4.834-2.096-3.223-3.143-8.308-3.143-15.254 0-6.947 1.047-12.032 3.142-15.254 2.095-3.223 5.29-4.834 9.588-4.834 4.332 0 7.555 1.611 9.667 4.834 2.113 3.222 3.17 8.307 3.17 15.254 0 6.946-1.048 12.03-3.143 15.254-2.094 3.222-5.308 4.834-9.64 4.834zm0-6.285c1.934 0 3.33-1.092 4.19-3.276.86-2.184 1.289-5.693 1.289-10.527s-.439-8.343-1.316-10.528c-.877-2.184-2.283-3.276-4.216-3.276-1.898 0-3.277 1.092-4.136 3.276-.86 2.185-1.29 5.694-1.29 10.528 0 4.834.43 8.343 1.29 10.527.86 2.184 2.256 3.276 4.19 3.276zm28.302 6.285c-4.332 0-7.546-1.612-9.64-4.834-2.096-3.223-3.143-8.308-3.143-15.254 0-6.947 1.047-12.032 3.142-15.254 2.095-3.223 5.29-4.834 9.588-4.834 4.332 0 7.555 1.611 9.668 4.834 2.112 3.222 3.169 8.307 3.169 15.254 0 6.946-1.048 12.03-3.143 15.254-2.094 3.222-5.308 4.834-9.64 4.834zm0-6.285c1.934 0 3.33-1.092 4.19-3.276.86-2.184 1.289-5.693 1.289-10.527s-.439-8.343-1.316-10.528c-.877-2.184-2.283-3.276-4.216-3.276-1.898 0-3.277 1.092-4.136 3.276-.86 2.185-1.29 5.694-1.29 10.528 0 4.834.43 8.343 1.29 10.527.86 2.184 2.256 3.276 4.19 3.276zm33.029 6.23c-5.443 0-9.65-1.673-12.622-5.021-2.972-3.348-4.458-8.084-4.458-14.207 0-4.297.671-8.012 2.014-11.145 1.343-3.133 3.276-5.54 5.8-7.224 2.525-1.683 5.524-2.524 8.997-2.524 1.898 0 3.742.268 5.533.805 1.79.538 3.348 1.307 4.672 2.31l-2.31 5.371c-2.9-1.396-5.55-2.095-7.948-2.095-2.972 0-5.273 1.218-6.902 3.653-1.63 2.435-2.444 5.872-2.444 10.312 0 8.845 3.33 13.267 9.99 13.267 2.65 0 5.174-.627 7.573-1.88l2.364 5.317c-1.074.967-2.507 1.719-4.297 2.256-1.79.537-3.778.806-5.962.806zM190.936 1.113V6.7l-15.039 33.838-6.015-2.47 14.394-31.368H166.39V1.113h24.546zm18.097 39.585c-4.511 0-7.868-1.62-10.07-4.86-2.203-3.241-3.304-8.335-3.304-15.281 0-6.947 1.092-12.04 3.277-15.281 2.184-3.24 5.532-4.861 10.044-4.861 4.547 0 7.922 1.62 10.124 4.86 2.202 3.241 3.303 8.335 3.303 15.282 0 6.946-1.1 12.04-3.303 15.28-2.202 3.241-5.559 4.861-10.07 4.861zm0-5.693c2.364 0 4.091-1.155 5.183-3.464 1.093-2.31 1.639-5.971 1.639-10.984s-.546-8.675-1.639-10.984c-1.092-2.31-2.837-3.465-5.236-3.465-2.364 0-4.082 1.155-5.157 3.465-1.074 2.31-1.611 5.97-1.611 10.984 0 5.048.537 8.719 1.611 11.01 1.075 2.292 2.811 3.438 5.21 3.438zm30.45 5.693c-4.51 0-7.868-1.62-10.07-4.86-2.202-3.241-3.303-8.335-3.303-15.281 0-6.947 1.092-12.04 3.276-15.281 2.184-3.24 5.532-4.861 10.044-4.861 4.548 0 7.922 1.62 10.125 4.86 2.202 3.241 3.303 8.335 3.303 15.282 0 6.946-1.101 12.04-3.303 15.28-2.203 3.241-5.56 4.861-10.071 4.861zm0-5.693c2.364 0 4.092-1.155 5.184-3.464 1.092-2.31 1.638-5.971 1.638-10.984s-.546-8.675-1.638-10.984c-1.092-2.31-2.838-3.465-5.237-3.465-2.363 0-4.082 1.155-5.156 3.465-1.074 2.31-1.611 5.97-1.611 10.984 0 5.048.537 8.719 1.61 11.01 1.075 2.292 2.812 3.438 5.21 3.438zM188.876 105.113v5.318l-14.126 34.052-5.8-2.417 13.588-31.635h-16.865v-5.318h23.203zm16.54 39.532c-4.262 0-7.413-1.62-9.454-4.861-2.04-3.24-3.061-8.317-3.061-15.227 0-6.911 1.02-11.987 3.061-15.227 2.041-3.241 5.174-4.861 9.4-4.861 4.26 0 7.42 1.62 9.48 4.86 2.059 3.241 3.088 8.317 3.088 15.228 0 6.91-1.03 11.986-3.088 15.227-2.06 3.24-5.201 4.86-9.427 4.86zm0-5.425c2.148 0 3.714-1.173 4.7-3.518.984-2.346 1.476-6.06 1.476-11.145 0-5.12-.492-8.845-1.477-11.172-.985-2.328-2.569-3.491-4.753-3.491-2.149 0-3.706 1.163-4.673 3.49-.967 2.328-1.45 6.052-1.45 11.173 0 5.12.483 8.844 1.45 11.172.967 2.327 2.542 3.49 4.726 3.49zm28.194 5.425c-4.26 0-7.412-1.62-9.453-4.861-2.041-3.24-3.062-8.317-3.062-15.227 0-6.911 1.021-11.987 3.062-15.227 2.041-3.241 5.174-4.861 9.4-4.861 4.26 0 7.42 1.62 9.48 4.86 2.058 3.241 3.088 8.317 3.088 15.228 0 6.91-1.03 11.986-3.089 15.227-2.059 3.24-5.2 4.86-9.426 4.86zm0-5.425c2.149 0 3.715-1.173 4.7-3.518.985-2.346 1.477-6.06 1.477-11.145 0-5.12-.492-8.845-1.477-11.172-.985-2.328-2.57-3.491-4.754-3.491-2.148 0-3.706 1.163-4.672 3.49-.967 2.328-1.45 6.052-1.45 11.173 0 5.12.483 8.844 1.45 11.172.966 2.327 2.542 3.49 4.726 3.49zm32.921 5.37c-5.335 0-9.47-1.682-12.407-5.048-2.936-3.366-4.404-8.092-4.404-14.18 0-4.26.671-7.967 2.014-11.118 1.343-3.15 3.258-5.568 5.747-7.25 2.489-1.684 5.416-2.525 8.782-2.525 1.826 0 3.607.26 5.344.779s3.267 1.244 4.592 2.175l-1.987 4.726c-2.865-1.396-5.532-2.094-8.003-2.094-3.187 0-5.657 1.298-7.412 3.894s-2.632 6.24-2.632 10.93c0 9.381 3.563 14.072 10.689 14.072 2.685 0 5.227-.626 7.627-1.88l2.04 4.62c-1.074.895-2.488 1.602-4.243 2.121-1.754.52-3.67.779-5.747.779zM346.987 15.562c2.292 0 4.315.51 6.07 1.53 1.754 1.02 3.115 2.453 4.081 4.297.967 1.844 1.45 4.002 1.45 6.472 0 2.543-.528 4.78-1.584 6.714a11.262 11.262 0 0 1-4.458 4.512c-1.916 1.074-4.127 1.611-6.633 1.611-2.578 0-4.834-.555-6.768-1.665-1.933-1.11-3.428-2.667-4.485-4.673-1.056-2.005-1.584-4.314-1.584-6.928 0-2.758.537-5.416 1.611-7.976 1.074-2.56 2.919-5.47 5.532-8.728L348.384.415l4.189 3.169-8.272 9.937-2.31 2.954c1.433-.61 3.098-.913 4.996-.913zm-1.02 20.517c2.255 0 4.019-.716 5.29-2.148 1.271-1.433 1.907-3.402 1.907-5.909 0-2.578-.672-4.6-2.014-6.069-1.343-1.468-3.214-2.202-5.613-2.202-2.041 0-3.975.501-5.8 1.504-.896 1.683-1.344 3.706-1.344 6.07 0 2.72.672 4.86 2.014 6.418 1.343 1.557 3.196 2.336 5.56 2.336zm30.181 4.62c-4.44 0-7.725-1.63-9.855-4.888-2.131-3.259-3.196-8.344-3.196-15.254 0-6.911 1.056-11.996 3.169-15.254 2.112-3.259 5.389-4.888 9.829-4.888s7.734 1.63 9.883 4.888c2.148 3.258 3.222 8.343 3.222 15.254 0 6.91-1.074 11.995-3.222 15.254-2.149 3.258-5.425 4.887-9.83 4.887zm0-4.727c2.614 0 4.54-1.236 5.774-3.706 1.236-2.471 1.853-6.374 1.853-11.71 0-5.335-.617-9.238-1.853-11.708-1.235-2.471-3.177-3.706-5.827-3.706-2.614 0-4.53 1.235-5.747 3.706-1.218 2.47-1.826 6.373-1.826 11.709 0 5.335.608 9.238 1.826 11.709 1.217 2.47 3.15 3.706 5.8 3.706zm30.29 4.726c-4.44 0-7.726-1.629-9.856-4.887-2.13-3.259-3.196-8.344-3.196-15.254 0-6.911 1.056-11.996 3.17-15.254 2.112-3.259 5.388-4.888 9.828-4.888 4.44 0 7.735 1.63 9.883 4.888 2.148 3.258 3.223 8.343 3.223 15.254 0 6.91-1.075 11.995-3.223 15.254-2.148 3.258-5.425 4.887-9.83 4.887zm0-4.726c2.614 0 4.538-1.236 5.774-3.706 1.235-2.471 1.853-6.374 1.853-11.71 0-5.335-.618-9.238-1.853-11.708-1.236-2.471-3.178-3.706-5.828-3.706-2.614 0-4.53 1.235-5.747 3.706-1.217 2.47-1.826 6.373-1.826 11.709 0 5.335.609 9.238 1.826 11.709 1.218 2.47 3.151 3.706 5.8 3.706zM346.098 119.615c2.184 0 4.1.502 5.747 1.504 1.647 1.003 2.919 2.435 3.814 4.297.895 1.862 1.343 4.01 1.343 6.445 0 2.543-.493 4.78-1.478 6.714-.984 1.934-2.38 3.429-4.189 4.485-1.808 1.056-3.894 1.585-6.257 1.585-2.4 0-4.521-.547-6.365-1.639-1.844-1.092-3.267-2.64-4.27-4.646-1.003-2.005-1.504-4.314-1.504-6.928 0-2.83.51-5.515 1.53-8.057 1.021-2.542 2.749-5.407 5.184-8.594l7.68-10.312 4.083 3.061-7.842 9.99a84.374 84.374 0 0 0-2.149 2.955c1.361-.573 2.919-.86 4.673-.86zm-.967 20.625c2.077 0 3.706-.734 4.888-2.202s1.773-3.473 1.773-6.016c0-2.613-.627-4.663-1.88-6.15-1.254-1.485-2.99-2.228-5.21-2.228-1.755 0-3.491.43-5.21 1.289-.895 1.862-1.343 3.992-1.343 6.391 0 2.757.618 4.933 1.853 6.526 1.235 1.594 2.945 2.39 5.13 2.39zm27.927 4.405c-4.154 0-7.234-1.63-9.239-4.888-2.005-3.259-3.008-8.325-3.008-15.2s1.003-11.942 3.008-15.2c2.005-3.259 5.067-4.888 9.185-4.888 4.153 0 7.233 1.629 9.238 4.887 2.005 3.259 3.008 8.326 3.008 15.2 0 6.876-1.003 11.942-3.008 15.2-2.005 3.26-5.067 4.889-9.184 4.889zm0-4.512c2.399 0 4.153-1.253 5.263-3.76 1.11-2.506 1.665-6.445 1.665-11.816s-.564-9.31-1.692-11.817c-1.128-2.506-2.891-3.76-5.29-3.76-2.4 0-4.154 1.254-5.264 3.76-1.11 2.507-1.665 6.446-1.665 11.817 0 5.37.564 9.31 1.692 11.816 1.128 2.507 2.891 3.76 5.29 3.76zm28.033 4.512c-4.154 0-7.233-1.63-9.238-4.888-2.005-3.259-3.008-8.325-3.008-15.2s1.003-11.942 3.008-15.2c2.005-3.259 5.066-4.888 9.184-4.888 4.154 0 7.233 1.629 9.239 4.887 2.005 3.259 3.007 8.326 3.007 15.2 0 6.876-1.002 11.942-3.007 15.2-2.006 3.26-5.067 4.889-9.185 4.889zm0-4.512c2.4 0 4.154-1.253 5.264-3.76 1.11-2.506 1.665-6.445 1.665-11.816s-.564-9.31-1.692-11.817c-1.128-2.506-2.892-3.76-5.29-3.76-2.4 0-4.154 1.254-5.264 3.76-1.11 2.507-1.665 6.446-1.665 11.817 0 5.37.564 9.31 1.692 11.816 1.127 2.507 2.89 3.76 5.29 3.76zm32.814 4.458c-5.228 0-9.292-1.692-12.193-5.076-2.9-3.384-4.35-8.12-4.35-14.206 0-4.226.662-7.905 1.987-11.038 1.325-3.133 3.214-5.55 5.667-7.251 2.452-1.7 5.326-2.551 8.62-2.551 1.719 0 3.42.241 5.103.725 1.683.483 3.187 1.155 4.512 2.014l-1.72 4.028c-2.792-1.396-5.442-2.094-7.948-2.094-3.438 0-6.106 1.378-8.003 4.135-1.898 2.758-2.847 6.625-2.847 11.602 0 4.941.967 8.674 2.9 11.199 1.934 2.524 4.799 3.786 8.594 3.786 2.757 0 5.282-.626 7.573-1.88l1.773 3.921c-1.11.824-2.516 1.477-4.216 1.96-1.701.484-3.519.726-5.452.726zM513.125 15.508c2.292 0 4.315.51 6.07 1.53 1.754 1.021 3.106 2.462 4.055 4.324.949 1.862 1.423 4.01 1.423 6.446 0 2.542-.537 4.789-1.611 6.74a11.257 11.257 0 0 1-4.566 4.539c-1.97 1.074-4.243 1.611-6.821 1.611-1.826 0-3.68-.26-5.56-.779-1.879-.519-3.481-1.208-4.806-2.067l1.772-3.814a18.57 18.57 0 0 0 4.27 1.853c1.522.448 2.963.672 4.324.672 2.614 0 4.673-.77 6.177-2.31 1.504-1.54 2.256-3.67 2.256-6.392 0-2.614-.708-4.655-2.122-6.123s-3.357-2.202-5.828-2.202c-1.217 0-2.399.17-3.545.51-1.145.34-2.148.833-3.007 1.477l-2.74-1.503 1.182-18.907h18.96V4.98h-15.147l-.805 11.817c.86-.394 1.826-.707 2.9-.94 1.074-.233 2.13-.35 3.17-.35zm30.612 25.19c-4.369 0-7.6-1.629-9.695-4.887-2.095-3.259-3.142-8.344-3.142-15.254 0-6.911 1.047-11.996 3.142-15.254 2.095-3.259 5.308-4.888 9.641-4.888 4.369 0 7.6 1.63 9.695 4.888 2.095 3.258 3.142 8.343 3.142 15.254 0 6.91-1.047 11.995-3.142 15.254-2.095 3.258-5.308 4.887-9.641 4.887zm0-3.974c2.829 0 4.905-1.307 6.23-3.921 1.325-2.614 1.988-6.696 1.988-12.246 0-5.55-.672-9.633-2.015-12.246-1.342-2.614-3.428-3.921-6.257-3.921-2.829 0-4.905 1.307-6.23 3.92-1.325 2.614-1.988 6.696-1.988 12.247 0 5.55.672 9.632 2.014 12.246 1.343 2.614 3.429 3.92 6.258 3.92zm30.182 3.974c-4.369 0-7.6-1.629-9.695-4.887-2.095-3.259-3.142-8.344-3.142-15.254 0-6.911 1.047-11.996 3.142-15.254 2.095-3.259 5.308-4.888 9.641-4.888 4.369 0 7.6 1.63 9.695 4.888 2.095 3.258 3.142 8.343 3.142 15.254 0 6.91-1.047 11.995-3.142 15.254-2.095 3.258-5.309 4.887-9.641 4.887zm0-3.974c2.829 0 4.905-1.307 6.23-3.921 1.325-2.614 1.988-6.696 1.988-12.246 0-5.55-.672-9.633-2.015-12.246-1.342-2.614-3.428-3.921-6.257-3.921-2.829 0-4.906 1.307-6.23 3.92-1.325 2.614-1.988 6.696-1.988 12.247 0 5.55.672 9.632 2.014 12.246 1.343 2.614 3.429 3.92 6.258 3.92zM511.817 119.562c2.184 0 4.1.51 5.747 1.53 1.647 1.02 2.918 2.453 3.813 4.297.896 1.844 1.343 3.966 1.343 6.365 0 2.578-.51 4.843-1.53 6.794-1.021 1.952-2.462 3.456-4.324 4.512-1.862 1.056-4.01 1.585-6.446 1.585-1.754 0-3.527-.26-5.317-.78-1.79-.518-3.276-1.208-4.458-2.067l1.665-3.652a17.292 17.292 0 0 0 4.002 1.853c1.414.447 2.784.67 4.108.67 2.435 0 4.351-.787 5.747-2.362 1.397-1.576 2.095-3.724 2.095-6.446 0-2.65-.653-4.717-1.96-6.203-1.307-1.486-3.107-2.23-5.398-2.23-1.146 0-2.265.17-3.357.511-1.092.34-2.032.815-2.82 1.423l-2.578-1.342 1.074-18.907h17.94v3.706h-14.18l-.752 11.924c1.683-.788 3.545-1.181 5.586-1.181zm28.356 25.083c-4.082 0-7.108-1.63-9.077-4.888-1.97-3.259-2.955-8.325-2.955-15.2s.976-11.942 2.928-15.2c1.951-3.259 4.968-4.888 9.05-4.888 4.082 0 7.108 1.629 9.077 4.887 1.97 3.259 2.954 8.326 2.954 15.2 0 6.876-.976 11.942-2.927 15.2-1.952 3.26-4.968 4.889-9.05 4.889zm0-3.814c2.578 0 4.476-1.316 5.693-3.948 1.218-2.632 1.826-6.74 1.826-12.326s-.608-9.695-1.826-12.327c-1.217-2.632-3.133-3.948-5.747-3.948-2.578 0-4.476 1.316-5.693 3.948-1.218 2.632-1.827 6.74-1.827 12.327 0 5.586.61 9.694 1.827 12.326 1.217 2.632 3.133 3.948 5.747 3.948zm27.926 3.814c-4.082 0-7.108-1.63-9.077-4.888-1.97-3.259-2.954-8.325-2.954-15.2s.975-11.942 2.927-15.2c1.951-3.259 4.968-4.888 9.05-4.888 4.082 0 7.108 1.629 9.077 4.887 1.97 3.259 2.954 8.326 2.954 15.2 0 6.876-.975 11.942-2.927 15.2-1.951 3.26-4.968 4.889-9.05 4.889zm0-3.814c2.578 0 4.476-1.316 5.693-3.948 1.218-2.632 1.826-6.74 1.826-12.326s-.608-9.695-1.826-12.327c-1.217-2.632-3.133-3.948-5.747-3.948-2.578 0-4.476 1.316-5.693 3.948-1.218 2.632-1.826 6.74-1.826 12.327 0 5.586.608 9.694 1.826 12.326 1.217 2.632 3.133 3.948 5.747 3.948zm32.706 3.76c-5.12 0-9.113-1.692-11.977-5.076-2.865-3.384-4.297-8.12-4.297-14.206 0-4.19.653-7.86 1.96-11.011 1.307-3.151 3.17-5.577 5.586-7.278 2.417-1.7 5.237-2.551 8.46-2.551 1.683 0 3.348.232 4.995.698 1.647.465 3.133 1.11 4.458 1.934l-1.504 3.437c-2.757-1.396-5.425-2.095-8.003-2.095-3.58 0-6.374 1.442-8.379 4.324-2.005 2.883-3.008 6.938-3.008 12.166 0 5.12 1.012 9.005 3.035 11.655 2.023 2.65 5.022 3.975 8.996 3.975 2.793 0 5.336-.627 7.627-1.88l1.558 3.383c-1.146.788-2.56 1.406-4.243 1.853a20.394 20.394 0 0 1-5.264.672zM693.222 27.861v3.492h-5.103V40h-3.813v-8.647h-17.241V27.86l15.468-26.748h5.586v26.748h5.103zm-8.916 0V4.766L671.308 27.86h12.998zm25.992 12.837c-4.297 0-7.483-1.638-9.56-4.914-2.077-3.277-3.115-8.352-3.115-15.227s1.038-11.951 3.115-15.227c2.077-3.277 5.263-4.915 9.56-4.915 4.297 0 7.484 1.638 9.56 4.915 2.078 3.276 3.116 8.352 3.116 15.227s-1.038 11.95-3.115 15.227c-2.077 3.276-5.264 4.914-9.56 4.914zm0-3.545c2.937 0 5.103-1.342 6.5-4.028 1.396-2.686 2.094-6.875 2.094-12.568 0-5.694-.698-9.883-2.095-12.569-1.396-2.685-3.562-4.028-6.499-4.028-2.936 0-5.102 1.343-6.499 4.028-1.396 2.686-2.094 6.875-2.094 12.569 0 5.693.698 9.882 2.094 12.568 1.397 2.686 3.563 4.028 6.5 4.028zm30.129 3.545c-4.297 0-7.484-1.638-9.561-4.914-2.077-3.277-3.115-8.352-3.115-15.227s1.038-11.951 3.115-15.227c2.077-3.277 5.264-4.915 9.56-4.915 4.297 0 7.484 1.638 9.561 4.915 2.077 3.276 3.115 8.352 3.115 15.227s-1.038 11.95-3.115 15.227c-2.077 3.276-5.264 4.914-9.56 4.914zm0-3.545c2.936 0 5.102-1.342 6.499-4.028 1.396-2.686 2.094-6.875 2.094-12.568 0-5.694-.698-9.883-2.094-12.569-1.397-2.685-3.563-4.028-6.5-4.028-2.936 0-5.102 1.343-6.498 4.028-1.397 2.686-2.095 6.875-2.095 12.569 0 5.693.698 9.882 2.095 12.568 1.396 2.686 3.562 4.028 6.499 4.028zM691.188 131.969v3.33h-4.672V144h-3.76v-8.701h-16.22v-3.33l14.394-26.856h5.586v26.856h4.672zm-8.432 0v-23.365l-12.193 23.365h12.193zm24.005 12.676c-4.046 0-7.036-1.63-8.97-4.888-1.933-3.259-2.9-8.325-2.9-15.2s.967-11.942 2.9-15.2c1.934-3.259 4.924-4.888 8.97-4.888s7.036 1.629 8.97 4.887c1.933 3.259 2.9 8.326 2.9 15.2 0 6.876-.967 11.942-2.9 15.2-1.934 3.26-4.924 4.889-8.97 4.889zm0-3.438c2.721 0 4.709-1.352 5.962-4.055 1.253-2.704 1.88-6.902 1.88-12.595 0-5.694-.627-9.892-1.88-12.596-1.253-2.703-3.24-4.055-5.962-4.055-2.686 0-4.664 1.352-5.935 4.055-1.271 2.704-1.907 6.902-1.907 12.596 0 5.693.636 9.891 1.907 12.595 1.271 2.703 3.25 4.055 5.935 4.055zm27.872 3.438c-4.046 0-7.036-1.63-8.97-4.888-1.933-3.259-2.9-8.325-2.9-15.2s.967-11.942 2.9-15.2c1.934-3.259 4.924-4.888 8.97-4.888 4.047 0 7.037 1.629 8.97 4.887 1.934 3.259 2.9 8.326 2.9 15.2 0 6.876-.966 11.942-2.9 15.2-1.933 3.26-4.923 4.889-8.97 4.889zm0-3.438c2.722 0 4.71-1.352 5.962-4.055 1.254-2.704 1.88-6.902 1.88-12.595 0-5.694-.626-9.892-1.88-12.596-1.253-2.703-3.24-4.055-5.962-4.055-2.685 0-4.663 1.352-5.935 4.055-1.27 2.704-1.906 6.902-1.906 12.596 0 5.693.635 9.891 1.906 12.595 1.272 2.703 3.25 4.055 5.935 4.055zm32.707 3.384c-3.366 0-6.258-.761-8.675-2.283-2.417-1.522-4.27-3.733-5.559-6.633-1.289-2.9-1.933-6.356-1.933-10.366 0-4.154.653-7.806 1.96-10.957 1.307-3.151 3.16-5.586 5.56-7.305 2.398-1.719 5.191-2.578 8.378-2.578 1.612 0 3.232.224 4.861.671 1.63.448 3.106 1.065 4.431 1.853l-1.343 3.17c-2.757-1.397-5.424-2.096-8.002-2.096-3.689 0-6.562 1.477-8.621 4.432-2.059 2.954-3.088 7.098-3.088 12.434 0 5.263 1.038 9.247 3.115 11.95 2.077 2.704 5.156 4.055 9.238 4.055 2.793 0 5.335-.626 7.627-1.88l1.396 3.116c-1.145.752-2.542 1.343-4.189 1.772-1.647.43-3.366.645-5.156.645zM845.91 17.065c3.4 0 6.122 1.039 8.163 3.116 2.041 2.076 3.062 4.852 3.062 8.325 0 2.435-.51 4.574-1.53 6.418a10.61 10.61 0 0 1-4.298 4.27c-1.844 1.003-4.001 1.504-6.472 1.504-1.79 0-3.652-.268-5.586-.805-1.934-.538-3.58-1.254-4.941-2.149l1.289-2.632c1.396.895 2.9 1.585 4.511 2.068 1.612.484 3.187.725 4.727.725 2.829 0 5.067-.841 6.714-2.524 1.647-1.683 2.47-3.957 2.47-6.821 0-2.758-.787-4.933-2.363-6.526-1.575-1.594-3.742-2.39-6.499-2.39-1.396 0-2.632.16-3.706.483l-1.289-1.558 12.3-14.824h-17.564V1.113h21.055v2.632L844.781 17.12c.251-.036.627-.054 1.128-.054zm30.45 23.633c-4.19 0-7.296-1.638-9.32-4.914-2.022-3.277-3.034-8.352-3.034-15.227s1.012-11.951 3.035-15.227c2.023-3.277 5.13-4.915 9.319-4.915 4.19 0 7.295 1.638 9.319 4.915 2.023 3.276 3.034 8.352 3.034 15.227s-1.011 11.95-3.034 15.227c-2.024 3.276-5.13 4.914-9.32 4.914zm0-2.685c3.187 0 5.532-1.415 7.036-4.243 1.504-2.83 2.256-7.234 2.256-13.213 0-5.98-.752-10.384-2.256-13.213-1.504-2.829-3.85-4.243-7.036-4.243-3.187 0-5.524 1.414-7.01 4.243-1.486 2.829-2.229 7.233-2.229 13.213 0 5.98.743 10.384 2.23 13.213 1.485 2.828 3.822 4.243 7.009 4.243zm29.752 2.685c-4.19 0-7.296-1.638-9.319-4.914-2.023-3.277-3.034-8.352-3.034-15.227s1.011-11.951 3.034-15.227c2.023-3.277 5.13-4.915 9.319-4.915 4.19 0 7.296 1.638 9.319 4.915 2.023 3.276 3.035 8.352 3.035 15.227s-1.012 11.95-3.035 15.227c-2.023 3.276-5.13 4.914-9.319 4.914zm0-2.685c3.187 0 5.532-1.415 7.036-4.243 1.504-2.83 2.256-7.234 2.256-13.213 0-5.98-.752-10.384-2.256-13.213-1.504-2.829-3.85-4.243-7.036-4.243-3.187 0-5.523 1.414-7.01 4.243-1.485 2.829-2.228 7.233-2.228 13.213 0 5.98.743 10.384 2.229 13.213 1.486 2.828 3.822 4.243 7.009 4.243zM844.682 121.065c3.186 0 5.747 1.039 7.68 3.116 1.934 2.076 2.9 4.852 2.9 8.325 0 2.435-.483 4.565-1.45 6.391-.966 1.827-2.327 3.241-4.082 4.244-1.754 1.002-3.795 1.504-6.123 1.504-1.683 0-3.428-.269-5.237-.806-1.808-.537-3.374-1.235-4.7-2.095l1.236-2.578a16.523 16.523 0 0 0 4.27 2.068c1.522.483 2.999.725 4.431.725 2.65 0 4.736-.841 6.258-2.524 1.521-1.683 2.282-3.975 2.282-6.875 0-2.758-.734-4.942-2.202-6.553-1.468-1.612-3.473-2.417-6.015-2.417-1.361 0-2.525.161-3.492.483l-1.181-1.504 11.44-14.878h-16.435v-2.578h19.873v2.578L843.66 121.12c.215-.036.555-.054 1.02-.054zm28.248 23.58c-3.903 0-6.812-1.639-8.728-4.915-1.916-3.276-2.874-8.334-2.874-15.173 0-6.84.958-11.897 2.874-15.174 1.916-3.276 4.825-4.914 8.728-4.914 3.939 0 6.857 1.638 8.755 4.914 1.898 3.277 2.846 8.334 2.846 15.174 0 6.839-.948 11.897-2.846 15.173-1.898 3.276-4.816 4.915-8.755 4.915zm0-2.579c2.936 0 5.102-1.423 6.499-4.27 1.396-2.846 2.095-7.26 2.095-13.24s-.699-10.392-2.095-13.24c-1.397-2.846-3.563-4.27-6.5-4.27-2.935 0-5.093 1.424-6.471 4.27-1.379 2.848-2.068 7.26-2.068 13.24s.69 10.394 2.068 13.24c1.378 2.847 3.536 4.27 6.472 4.27zm27.604 2.579c-3.903 0-6.813-1.639-8.728-4.915-1.916-3.276-2.874-8.334-2.874-15.173 0-6.84.958-11.897 2.874-15.174 1.915-3.276 4.825-4.914 8.728-4.914 3.939 0 6.857 1.638 8.755 4.914 1.897 3.277 2.846 8.334 2.846 15.174 0 6.839-.949 11.897-2.846 15.173-1.898 3.276-4.816 4.915-8.755 4.915zm0-2.579c2.936 0 5.102-1.423 6.499-4.27 1.396-2.846 2.094-7.26 2.094-13.24s-.698-10.392-2.094-13.24c-1.397-2.846-3.563-4.27-6.5-4.27-2.935 0-5.093 1.424-6.471 4.27-1.379 2.848-2.068 7.26-2.068 13.24s.689 10.394 2.068 13.24c1.378 2.847 3.536 4.27 6.472 4.27zm32.491 2.525c-5.049 0-8.96-1.683-11.736-5.049-2.775-3.366-4.162-8.128-4.162-14.287 0-4.19.635-7.85 1.907-10.984 1.27-3.133 3.07-5.55 5.398-7.251 2.327-1.7 5.066-2.551 8.217-2.551 1.576 0 3.17.215 4.78.644 1.612.43 3.08 1.039 4.405 1.826l-1.074 2.417c-2.758-1.468-5.479-2.202-8.164-2.202-2.543 0-4.745.716-6.607 2.149-1.862 1.432-3.285 3.482-4.27 6.15-.985 2.667-1.477 5.827-1.477 9.48 0 5.478 1.11 9.668 3.33 12.568 2.22 2.9 5.443 4.35 9.668 4.35 2.936 0 5.532-.662 7.788-1.987l1.128 2.364c-1.074.751-2.417 1.333-4.028 1.745a20.537 20.537 0 0 1-5.103.618zM1021.589 38.281V40h-20.947v-1.719l13.803-17.67c1.79-2.257 3.044-4.154 3.76-5.694.716-1.54 1.074-3.097 1.074-4.673 0-2.435-.76-4.377-2.282-5.827-1.522-1.45-3.554-2.176-6.097-2.176-1.647 0-3.294.278-4.941.833a15.565 15.565 0 0 0-4.458 2.336l-.913-1.504c1.325-1.038 2.936-1.88 4.834-2.524 1.898-.645 3.742-.967 5.532-.967 3.115 0 5.595.877 7.44 2.632 1.843 1.754 2.765 4.118 2.765 7.09 0 1.718-.412 3.473-1.235 5.263-.824 1.79-2.184 3.885-4.082 6.285l-12.998 16.596h18.745zm19.386 2.417c-4.01 0-7.01-1.638-8.997-4.914-1.987-3.277-2.98-8.352-2.98-15.227s.993-11.951 2.98-15.227c1.988-3.277 4.986-4.915 8.997-4.915 4.01 0 7.01 1.638 8.997 4.915 1.987 3.276 2.98 8.352 2.98 15.227s-.993 11.95-2.98 15.227c-1.988 3.276-4.987 4.914-8.997 4.914zm0-1.719c3.437 0 5.97-1.494 7.6-4.484s2.444-7.636 2.444-13.938c0-6.302-.815-10.948-2.444-13.938-1.63-2.99-4.163-4.485-7.6-4.485-3.438 0-5.97 1.495-7.6 4.485s-2.444 7.636-2.444 13.938c0 6.302.815 10.948 2.444 13.938 1.63 2.99 4.162 4.484 7.6 4.484zm29.269 1.72c-4.01 0-7.01-1.639-8.997-4.915-1.987-3.277-2.98-8.352-2.98-15.227s.993-11.951 2.98-15.227c1.988-3.277 4.986-4.915 8.997-4.915 4.01 0 7.01 1.638 8.996 4.915 1.988 3.276 2.981 8.352 2.981 15.227s-.993 11.95-2.98 15.227c-1.988 3.276-4.987 4.914-8.997 4.914zm0-1.72c3.437 0 5.97-1.494 7.6-4.484s2.444-7.636 2.444-13.938c0-6.302-.815-10.948-2.444-13.938-1.63-2.99-4.163-4.485-7.6-4.485-3.438 0-5.971 1.495-7.6 4.485-1.63 2.99-2.444 7.636-2.444 13.938 0 6.302.814 10.948 2.444 13.938 1.629 2.99 4.162 4.484 7.6 4.484zM1020.163 142.335V144h-19.712v-1.665l12.998-17.725c1.647-2.256 2.802-4.162 3.464-5.72.663-1.557.994-3.106.994-4.646 0-2.47-.698-4.431-2.095-5.881-1.396-1.45-3.294-2.175-5.693-2.175-1.504 0-3.053.277-4.646.832-1.593.555-2.999 1.334-4.216 2.336l-.86-1.45c1.254-1.074 2.757-1.924 4.512-2.551 1.755-.627 3.51-.94 5.264-.94 2.936 0 5.263.877 6.982 2.632 1.719 1.754 2.578 4.118 2.578 7.09 0 1.79-.376 3.554-1.128 5.29-.752 1.737-2.023 3.823-3.813 6.258l-12.246 16.65h17.617zm17.99 2.363c-3.796 0-6.625-1.647-8.487-4.941-1.862-3.294-2.793-8.361-2.793-15.2 0-6.84.931-11.906 2.793-15.2 1.862-3.295 4.69-4.942 8.487-4.942 3.795 0 6.624 1.647 8.486 4.941 1.862 3.295 2.793 8.361 2.793 15.2 0 6.84-.931 11.907-2.793 15.2-1.862 3.295-4.69 4.942-8.486 4.942zm0-1.665c3.222 0 5.594-1.495 7.116-4.485 1.522-2.99 2.283-7.653 2.283-13.991s-.761-11.002-2.283-13.992c-1.522-2.99-3.894-4.485-7.116-4.485-3.223 0-5.595 1.495-7.117 4.485-1.522 2.99-2.283 7.654-2.283 13.992 0 6.338.761 11.001 2.283 13.991 1.522 2.99 3.894 4.485 7.117 4.485zm27.227 1.665c-3.795 0-6.624-1.647-8.486-4.941-1.862-3.294-2.793-8.361-2.793-15.2 0-6.84.931-11.906 2.793-15.2 1.862-3.295 4.69-4.942 8.486-4.942 3.796 0 6.625 1.647 8.487 4.941 1.862 3.295 2.793 8.361 2.793 15.2 0 6.84-.931 11.907-2.793 15.2-1.862 3.295-4.691 4.942-8.487 4.942zm0-1.665c3.223 0 5.595-1.495 7.117-4.485 1.522-2.99 2.283-7.653 2.283-13.991s-.761-11.002-2.283-13.992c-1.522-2.99-3.894-4.485-7.117-4.485-3.222 0-5.595 1.495-7.116 4.485-1.522 2.99-2.283 7.654-2.283 13.992 0 6.338.76 11.001 2.283 13.991 1.521 2.99 3.894 4.485 7.116 4.485zm32.17 1.612c-5.05 0-8.916-1.683-11.602-5.05-2.685-3.365-4.028-8.181-4.028-14.448 0-4.225.608-7.895 1.826-11.01 1.217-3.116 2.972-5.515 5.264-7.198 2.291-1.682 4.977-2.524 8.056-2.524 1.468 0 3.008.215 4.62.645 1.61.43 3.079 1.038 4.404 1.826l-.752 1.504c-2.757-1.504-5.55-2.256-8.38-2.256-2.649 0-4.958.76-6.928 2.283-1.97 1.521-3.491 3.697-4.565 6.525-1.075 2.83-1.612 6.16-1.612 9.99 0 5.766 1.19 10.197 3.572 13.294 2.381 3.097 5.774 4.646 10.178 4.646 3.151 0 5.819-.68 8.003-2.04l.752 1.45c-1.002.751-2.291 1.333-3.867 1.745a19.464 19.464 0 0 1-4.941.618z"/>
    </g>
</svg>
